<svg width="512" height="512" viewBox="0 0 512 512" fill="none" xmlns="http://www.w3.org/2000/svg">
<path d="M232.776 216.01C224.945 220.532 218.63 227.274 214.631 235.384C210.631 243.494 209.126 252.608 210.307 261.573C211.487 270.538 215.3 278.952 221.262 285.751C227.224 292.549 235.069 297.427 243.803 299.767C252.538 302.107 261.77 301.805 270.333 298.898C278.895 295.991 286.404 290.61 291.908 283.436C297.413 276.262 300.666 267.616 301.257 258.593C301.848 249.57 299.75 240.574 295.229 232.743C289.165 222.243 279.179 214.581 267.467 211.444C255.755 208.306 243.277 209.948 232.776 216.01V216.01ZM437.695 265.615C434.694 262.184 431.527 258.745 428.194 255.296C430.522 252.849 432.775 250.404 434.952 247.962C476.061 201.773 493.411 155.451 477.335 127.603C461.919 100.902 416.063 92.9451 358.655 104.107C353.001 105.214 347.377 106.462 341.785 107.851C340.715 104.161 339.576 100.491 338.369 96.8432C318.894 38.1546 287.434 -0.0202159 255.28 8.03162e-06C224.447 0.014088 194.647 35.7654 175.637 91.0717C173.766 96.5278 172.036 102.029 170.446 107.576C166.707 106.659 162.952 105.812 159.182 105.034C98.6127 92.5983 49.8277 100.789 33.7824 128.653C18.3969 155.373 34.4872 199.048 72.9122 243.138C76.723 247.501 80.6416 251.766 84.6682 255.932C79.9214 260.822 75.4266 265.709 71.2372 270.568C33.7435 314.037 18.5733 356.997 33.934 383.602C49.798 411.083 97.8964 420.066 156.44 408.546C161.184 407.605 165.903 406.547 170.595 405.371C172.313 411.371 174.199 417.319 176.251 423.214C195.177 477.411 224.81 512.011 255.534 512C287.263 511.981 319.071 474.806 338.343 418.336C339.865 413.874 341.306 409.239 342.671 404.468C348.732 405.975 354.832 407.313 360.971 408.482C417.377 419.153 462.155 410.76 477.488 384.136C493.321 356.635 476.996 310.51 437.695 265.615H437.695ZM52.7364 139.567C62.6143 122.415 102.483 115.723 154.78 126.46C158.122 127.147 161.522 127.915 164.978 128.764C159.872 151.349 156.27 174.249 154.194 197.312C135.324 210.587 117.334 225.069 100.335 240.668C96.5893 236.794 92.944 232.827 89.3988 228.766L89.4003 228.768C56.477 190.99 43.4643 155.668 52.7364 139.567ZM152.235 286.205C139.164 276.308 127.017 266.17 115.992 255.972C127.01 245.838 139.164 235.733 152.208 225.862C151.739 235.917 151.507 245.98 151.511 256.05C151.518 266.105 151.759 276.157 152.235 286.205V286.205ZM152.219 387.085C130.031 392.018 107.124 392.827 84.6426 389.469C78.4798 388.989 72.4809 387.251 67.0166 384.361C61.5522 381.471 56.7386 377.491 52.8731 372.668C43.5529 356.522 55.7341 322.031 87.7995 284.854C91.8308 280.195 95.9943 275.657 100.29 271.241C117.292 286.922 135.312 301.461 154.232 314.763C156.336 338.12 159.981 361.313 165.143 384.19C160.86 385.261 156.552 386.226 152.219 387.085ZM334.007 181.278C325.421 175.868 316.729 170.631 307.931 165.568C299.273 160.585 290.511 155.789 281.645 151.179C296.826 144.797 311.748 139.345 326.154 134.903C329.55 150.219 332.171 165.697 334.007 181.278V181.278ZM196.321 98.1811C212.609 50.792 236.709 21.8798 255.291 21.8718C275.082 21.8623 300.796 53.0592 317.61 103.731C318.702 107.034 319.735 110.356 320.708 113.696C298.618 120.548 277.006 128.854 256.013 138.559C235.107 128.739 213.563 120.341 191.526 113.422C192.999 108.303 194.598 103.223 196.321 98.1811ZM186.072 134.63C201.099 139.361 215.877 144.846 230.351 151.065C212.417 160.32 194.946 170.402 177.939 181.309C179.994 164.976 182.728 149.328 186.072 134.63ZM177.977 330.743C186.458 336.172 195.063 341.401 203.792 346.429C212.697 351.555 221.719 356.467 230.861 361.163C216.276 367.597 201.37 373.279 186.203 378.185C182.82 363.283 180.056 347.36 177.977 330.743ZM317.642 411.268C310.831 432.954 300.087 453.202 285.947 470.999L285.945 471C282.451 476.098 277.948 480.425 272.715 483.715C267.483 487.004 261.631 489.185 255.522 490.123C236.88 490.134 213.086 462.347 196.9 416C194.994 410.52 193.24 404.991 191.639 399.411C213.781 392.268 235.413 383.632 256.386 373.563C277.552 383.331 299.336 391.699 321.598 398.613C320.383 402.862 319.064 407.08 317.642 411.268ZM326.915 377.368C312.343 372.862 297.204 367.319 281.804 360.843C290.486 356.274 299.23 351.449 308.037 346.368C317.075 341.149 325.882 335.799 334.459 330.319C332.751 346.121 330.233 361.825 326.915 377.368V377.368ZM338.34 255.955C338.359 271.502 337.874 287.037 336.884 302.559C324.271 311.094 310.956 319.429 297.102 327.427C283.305 335.393 269.635 342.713 256.225 349.338C242.114 342.576 228.275 335.288 214.708 327.476C201.218 319.71 188.036 311.442 175.165 302.669C173.988 287.152 173.395 271.607 173.386 256.034L173.39 256.038C173.379 240.476 173.959 224.93 175.129 209.399C187.738 200.788 200.957 192.46 214.624 184.57C228.354 176.642 242.195 169.353 255.96 162.746C269.897 169.52 283.583 176.779 297.017 184.523C310.499 192.271 323.717 200.452 336.672 209.065C337.784 224.671 338.341 240.301 338.342 255.955H338.34ZM362.832 125.579C412.018 116.012 449.104 122.448 458.395 138.539C468.291 155.681 454.107 193.54 418.617 233.421L418.615 233.423C416.654 235.623 414.62 237.832 412.512 240.051C395.219 224.419 376.881 209.982 357.627 196.842C355.684 174.031 352.216 151.376 347.247 129.029C352.543 127.726 357.738 126.576 362.832 125.579V125.579ZM359.507 225.027C372.495 234.51 384.982 244.66 396.918 255.436C385.035 266.39 372.587 276.715 359.626 286.369C360.023 276.233 360.218 266.092 360.212 255.945C360.207 245.637 359.972 235.331 359.507 225.027V225.027ZM458.53 373.219C449.226 389.377 413.273 396.115 365.034 386.988C359.506 385.944 353.833 384.702 348.017 383.261C352.866 360.627 356.18 337.69 357.936 314.608C377.158 301.238 395.437 286.562 412.645 270.682C415.656 273.81 418.52 276.924 421.237 280.023V280.021C436.624 296.752 448.8 316.172 457.156 337.311C459.828 342.885 461.328 348.947 461.565 355.123C461.801 361.299 460.768 367.458 458.53 373.219V373.219Z" fill="#F9F3D7"/>
</svg>
