<svg width="512" height="512" viewBox="0 0 512 512" fill="none" xmlns="http://www.w3.org/2000/svg">
<g clip-path="url(#clip0_6_111)">
<path fill-rule="evenodd" clip-rule="evenodd" d="M392.397 471.859C347.725 471.859 318.848 450.56 304.768 422.707L343.936 400.026C354.253 416.87 367.642 429.235 391.373 429.235C411.29 429.235 424.013 419.277 424.013 405.53C424.013 384.845 396.416 376.755 376.934 368.41C342.221 353.638 319.181 335.078 319.181 295.885C319.181 259.814 346.675 232.32 389.658 232.32C420.224 232.32 442.24 242.97 458.035 270.797L420.582 294.861C412.339 280.09 403.405 274.253 389.658 274.253C375.552 274.253 366.618 283.187 366.618 294.861C366.618 309.299 375.552 315.136 396.186 324.07C439.424 342.605 472.141 357.171 472.141 404.838C472.141 448.154 438.118 471.859 392.397 471.859V471.859ZM281.6 399.334C281.6 449.178 250.906 475.52 208.282 475.52C169.779 475.52 146.714 460.8 135.373 435.2H134.707L173.85 407.834C181.402 421.222 188.211 430.72 204.698 430.72C220.518 430.72 230.4 422.707 230.4 398.669V230.4H281.6V399.334ZM0 512H512V0H0V512Z" fill="#F9F3D7"/>
</g>
<defs>
<clipPath id="clip0_6_111">
<rect width="512" height="512" rx="30" fill="white"/>
</clipPath>
</defs>
</svg>
