<svg width="512" height="512" viewBox="0 0 512 512" fill="none" xmlns="http://www.w3.org/2000/svg">
<path d="M82.9866 334.357L133.44 9.83444C133.805 7.42885 134.92 5.19978 136.626 3.46455C138.331 1.72932 140.541 0.576383 142.94 0.169861C145.339 -0.236662 147.805 0.123954 149.987 1.20037C152.169 2.27679 153.956 4.01414 155.093 6.16511L209.344 107.946L82.9866 334.357ZM441.28 413.098L393.237 114.453C392.884 112.36 391.962 110.404 390.573 108.799C389.184 107.194 387.38 106.001 385.359 105.352C383.338 104.702 381.177 104.621 379.113 105.116C377.048 105.611 375.16 106.664 373.653 108.16L70.72 413.098L238.336 507.562C243.505 510.467 249.335 511.992 255.264 511.992C261.193 511.992 267.023 510.467 272.192 507.562L441.28 413.098ZM305.067 152.49L266.24 78.2078C265.26 76.3397 263.788 74.7752 261.983 73.6837C260.178 72.5922 258.109 72.0152 256 72.0152C253.891 72.0152 251.821 72.5922 250.017 73.6837C248.212 74.7752 246.74 76.3397 245.76 78.2078L75.3066 383.658L305.067 152.49Z" fill="#F9F3D7"/>
</svg>
