<svg width="512" height="512" viewBox="0 0 512 512" fill="none" xmlns="http://www.w3.org/2000/svg">
<path d="M248.629 263.105V398.989L121.182 331.047V187.613L248.629 263.105Z" fill="#F9F3D7"/>
<path d="M263.135 263.105V398.989L390.583 331.047V187.613L263.135 263.105Z" fill="#F9F3D7"/>
<path d="M255.882 248.746L127.399 173.489L255.882 105.757L384.366 173.489L255.882 248.746Z" fill="#F9F3D7"/>
<path d="M248.353 0V90.3529L112.823 165.647L37.5294 120.47L248.353 0Z" fill="#F9F3D7"/>
<path d="M248.353 511.999V421.647L112.823 346.353L37.5294 391.529L248.353 511.999Z" fill="#F9F3D7"/>
<path d="M105.294 180.706L30 135.529V376.47L105.294 331.294V180.706Z" fill="#F9F3D7"/>
<path d="M263.412 0V90.3529L398.941 165.647L474.235 120.47L263.412 0Z" fill="#F9F3D7"/>
<path d="M263.412 511.999V421.647L398.941 346.353L474.235 391.529L263.412 511.999Z" fill="#F9F3D7"/>
<path d="M406.47 180.706L481.764 135.529V376.47L406.47 331.294V180.706Z" fill="#F9F3D7"/>
</svg>
