<svg width="512" height="512" viewBox="0 0 512 512" fill="none" xmlns="http://www.w3.org/2000/svg">
<path d="M256.192 0C249.005 0 241.818 1.76308 235.615 5.30769L40.4615 117.962C27.8585 125.248 20 139.043 20 153.615V358C20 372.769 27.8585 386.368 40.4615 393.654L91.6923 423.192C116.505 435.402 125.352 435.385 136.577 435.385C173.402 435.385 194.462 413.135 194.462 374.538V163.654C194.462 160.503 191.92 157.923 188.769 157.923H164.154C160.806 157.923 158.423 160.503 158.423 163.654V374.346C158.423 391.675 140.525 408.606 111.577 394.231L58 363.308C56.0308 362.323 54.8462 360.166 54.8462 358V153.808C54.8462 151.445 56.0308 149.451 58 148.269L253.154 35.6538C254.926 34.4723 257.3 34.4723 259.269 35.6538L454.423 148.269C456.392 149.451 457.577 151.449 457.577 153.615V358C457.577 360.166 456.388 362.323 454.615 363.308L259.269 476.154C257.497 477.138 254.926 477.138 253.154 476.154L202.923 446.423C201.545 445.438 199.609 445.251 198.231 446.038C184.249 453.915 181.689 454.894 168.692 459.423C165.542 460.408 160.615 462.371 170.462 467.885L235.615 506.5C241.917 510.045 249.026 512 256.115 512C263.402 512 270.468 510.045 276.769 506.5L472.154 393.654C484.757 386.368 492.615 372.769 492.615 358V153.808C492.615 139.038 484.757 125.44 472.154 118.154L276.769 5.30769C270.566 1.76308 263.38 0 256.192 0ZM308.692 157.654C252.963 157.654 219.692 181.269 219.692 220.654C219.692 263.386 252.745 275.183 306.308 280.5C370.308 286.802 375.231 296.282 375.231 308.885C375.231 330.546 357.734 339.808 316.577 339.808C264.786 339.808 253.357 326.792 249.615 301.192C249.222 298.435 246.872 296.462 244.115 296.462H218.692C215.542 296.462 213.192 299.046 213.192 302C213.192 334.886 231.112 374.038 316.577 374.038C378.411 374.038 413.846 349.651 413.846 307.115C413.846 264.974 385.288 253.728 325.423 245.654C264.574 237.777 258.462 233.64 258.462 219.462C258.462 207.646 263.794 192.115 308.692 192.115C348.668 192.115 363.626 200.752 369.731 227.731C370.322 230.291 372.474 232.269 375.231 232.269H400.654C402.229 232.269 403.588 231.489 404.769 230.308C405.754 229.323 406.351 227.734 406.154 225.962C402.215 179.488 371.314 157.654 308.692 157.654Z" fill="#F9F3D7"/>
</svg>
