<svg width="512" height="512" viewBox="0 0 512 512" fill="none" xmlns="http://www.w3.org/2000/svg">
<path d="M128 232C145.067 163.733 187.733 129.6 256 129.6C358.4 129.6 371.2 206.4 422.4 219.2C456.533 227.733 486.4 214.933 512 180.8C494.933 249.067 452.267 283.2 384 283.2C281.6 283.2 268.8 206.4 217.6 193.6C183.467 185.067 153.6 197.867 128 232ZM0 385.6C17.0667 317.333 59.7333 283.2 128 283.2C230.4 283.2 243.2 360 294.4 372.8C328.533 381.333 358.4 368.533 384 334.4C366.933 402.667 324.267 436.8 256 436.8C153.6 436.8 140.8 360 89.6 347.2C55.4667 338.667 25.6 351.467 0 385.6Z" fill="#F9F3D7"/>
</svg>
