<svg width="512" height="512" viewBox="0 0 512 512" fill="none" xmlns="http://www.w3.org/2000/svg">
<g clip-path="url(#clip0_6_109)">
<path d="M0 256V512H512V0H0V256ZM310.677 418.688C312.981 417.387 321.579 412.416 329.707 407.701L344.427 399.168L347.52 403.733C351.829 410.304 361.237 419.328 366.933 422.336C383.275 430.955 405.696 429.739 416.747 419.819C420.864 416.341 423.445 411.179 423.445 405.419C423.445 405.077 423.445 404.757 423.424 404.416V404.459C423.424 398.528 422.677 395.925 419.584 391.445C415.616 385.771 407.488 380.992 384.405 370.965C357.995 359.595 346.624 352.533 336.213 341.312C329.941 334.187 325.099 325.611 322.283 316.181L322.155 315.712C320.213 308.48 319.723 290.347 321.259 283.051C326.699 257.515 345.963 239.744 373.76 234.453C382.784 232.747 403.755 233.387 412.608 235.584V235.605C425.621 238.848 435.52 244.629 444.629 254.059C449.344 259.093 456.341 268.267 456.896 270.485C457.067 271.125 434.795 286.059 421.312 294.443C420.821 294.763 418.859 292.651 416.683 289.408C410.069 279.808 403.179 275.669 392.619 274.944C377.088 273.877 367.104 282.005 367.189 295.573C367.189 295.808 367.168 296.085 367.168 296.363C367.168 299.584 367.979 302.613 369.408 305.259L369.365 305.152C372.779 312.213 379.136 316.459 399.019 325.056C435.691 340.843 451.371 351.232 461.12 366.016C472 382.507 474.453 408.853 467.051 428.437C458.944 449.728 438.784 464.192 410.411 468.971C401.643 470.528 380.843 470.293 371.413 468.587C350.848 464.917 331.349 454.763 319.317 441.429C314.603 436.245 305.408 422.656 305.984 421.696C306.219 421.355 308.331 420.053 310.677 418.688ZM112.171 257.387C112.171 245.995 112.405 236.48 112.725 236.267C112.981 235.925 153.536 235.755 202.688 235.84L292.181 236.096L292.416 256.981L292.587 277.952H225.92V467.307H178.773V277.952H112.171V257.387Z" fill="#F9F3D7"/>
</g>
<defs>
<clipPath id="clip0_6_109">
<rect width="512" height="512" rx="30" fill="white"/>
</clipPath>
</defs>
</svg>
