<svg width="512" height="512" viewBox="0 0 512 512" fill="none" xmlns="http://www.w3.org/2000/svg">
<g clip-path="url(#clip0_6_78)">
<path d="M440.683 284.906C422.805 284.992 407.317 289.301 394.325 295.701C389.568 286.229 384.768 277.888 383.957 271.68C383.019 264.448 381.931 260.117 383.061 251.498C384.192 242.88 389.184 230.677 389.12 229.76C389.056 228.842 388.011 224.448 377.685 224.384C367.36 224.32 358.549 226.368 357.504 229.098C356.459 231.829 354.475 237.952 353.237 244.352C351.424 253.696 332.651 287.061 321.984 304.512C318.485 297.706 315.52 291.69 314.901 286.954C313.963 279.722 312.875 275.392 314.005 266.773C315.136 258.154 320.128 245.952 320.064 245.034C320 244.117 318.955 239.722 308.629 239.658C298.304 239.594 289.493 241.642 288.448 244.373C287.403 247.104 286.293 253.461 284.181 259.626C282.069 265.792 257.088 321.429 250.56 335.85C247.232 343.189 244.331 349.098 242.283 353.13L242.261 353.109C242.261 353.109 242.133 353.386 241.92 353.834C240.171 357.269 239.125 359.168 239.125 359.168C239.125 359.168 239.147 359.189 239.147 359.232C237.76 361.749 236.267 364.096 235.52 364.096C235.008 364.096 233.963 357.397 235.755 348.181C239.467 328.874 248.405 298.773 248.299 297.749C248.256 297.216 249.963 291.968 242.475 289.237C235.2 286.57 232.597 291.008 231.936 291.029C231.296 291.05 230.805 292.608 230.805 292.608C230.805 292.608 238.912 258.752 215.339 258.752C200.597 258.752 180.181 274.88 170.112 289.493C163.755 292.949 150.165 300.373 135.765 308.288C130.219 311.338 124.587 314.432 119.211 317.397C118.848 316.992 118.485 316.586 118.101 316.181C89.5148 285.674 36.6508 264.106 38.8908 223.104C39.7014 208.192 44.8854 168.938 140.437 121.322C218.709 82.3251 281.387 93.0558 292.203 116.842C307.669 150.826 258.709 213.994 177.429 223.104C146.453 226.581 130.155 214.57 126.101 210.112C121.835 205.397 121.195 205.184 119.595 206.08C116.992 207.509 118.635 211.669 119.595 214.144C122.027 220.458 131.989 231.658 148.971 237.226C163.904 242.133 200.277 244.821 244.245 227.818C293.504 208.768 331.968 155.776 320.661 111.466C309.163 66.4104 234.475 51.6051 163.755 76.7144C121.728 91.5838 76.1814 115.05 43.4348 145.685C4.50144 182.101 -1.72789 213.824 0.83211 227.072C9.92011 274.133 74.7948 304.789 100.779 327.509C99.4988 328.213 98.3041 328.874 97.1948 329.493C84.1601 335.936 34.7094 361.813 22.3361 389.162C8.29878 420.181 24.5761 442.432 35.3281 445.44C68.6934 454.72 102.933 438.016 121.323 410.581C139.712 383.146 137.472 347.413 129.024 331.114C128.917 330.922 128.811 330.709 128.704 330.517C132.075 328.533 135.488 326.506 138.901 324.501C145.536 320.618 152.043 316.97 157.675 313.898C154.517 322.56 152.192 332.928 150.997 347.925C149.611 365.504 156.843 388.266 166.272 397.226C170.432 401.173 175.424 401.258 178.603 401.258C189.589 401.258 194.603 392.128 200.128 381.312C206.891 368.042 212.907 352.618 212.907 352.618C212.907 352.618 205.376 394.325 225.92 394.325C233.408 394.325 240.939 384.618 244.288 379.669C244.288 379.733 244.309 379.754 244.309 379.754C244.309 379.754 244.501 379.434 244.885 378.794C245.653 377.6 246.101 376.853 246.101 376.853C246.101 376.853 246.123 376.768 246.144 376.64C249.152 371.413 255.829 359.509 265.835 339.861C278.763 314.474 291.157 282.688 291.157 282.688C291.157 282.688 292.309 290.453 296.085 303.317C298.304 310.869 303.04 319.232 306.752 327.253C303.744 331.413 301.909 333.802 301.909 333.802C301.909 333.802 301.931 333.845 301.952 333.93C299.563 337.109 296.875 340.544 294.059 343.893C283.861 356.053 271.701 369.92 270.08 373.93C268.16 378.645 268.608 382.122 272.32 384.917C275.029 386.965 279.851 387.264 284.885 386.944C294.059 386.325 300.501 384.042 303.701 382.677C308.672 380.928 314.453 378.154 319.872 374.165C329.877 366.805 335.915 356.266 335.339 342.336C335.019 334.656 332.565 327.04 329.472 319.85C330.389 318.549 331.285 317.226 332.203 315.882C347.989 292.821 360.235 267.456 360.235 267.456C360.235 267.456 361.387 275.221 365.163 288.085C367.083 294.592 370.837 301.696 374.251 308.65C359.403 320.704 350.208 334.72 347.008 343.914C341.099 360.917 345.728 368.618 354.411 370.368C358.336 371.157 363.904 369.365 368.064 367.594C373.269 365.866 379.499 363.008 385.344 358.72C395.349 351.36 404.971 341.056 404.395 327.104C404.139 320.746 402.411 314.453 400.064 308.394C412.651 303.146 428.928 300.245 449.664 302.656C494.165 307.861 502.891 335.637 501.227 347.264C499.563 358.89 490.219 365.29 487.104 367.21C483.989 369.13 483.029 369.813 483.285 371.242C483.669 373.333 485.099 373.248 487.765 372.8C491.435 372.181 511.125 363.349 511.979 341.866C513.045 314.581 486.933 284.65 440.683 284.906ZM97.6641 400.533C82.9228 416.618 62.3361 422.698 53.5041 417.578C43.9681 412.053 47.7441 388.373 65.8348 371.306C76.8641 360.917 91.0934 351.338 100.544 345.429C102.699 344.128 105.856 342.229 109.696 339.946C110.336 339.584 110.699 339.392 110.699 339.392L110.677 339.37C111.424 338.922 112.171 338.474 112.96 338.005C119.531 362.282 113.131 383.658 97.6641 400.533ZM205.056 327.53C199.915 340.053 189.184 372.074 182.635 370.346C177.024 368.874 173.611 344.533 181.504 320.576C185.493 308.522 193.984 294.101 198.997 288.512C207.04 279.509 215.893 276.565 218.048 280.213C220.8 284.885 208.277 319.701 205.056 327.53ZM293.76 369.877C291.584 371.008 289.579 371.733 288.661 371.178C287.979 370.773 289.557 369.28 289.557 369.28C289.557 369.28 300.651 357.333 305.024 351.914C307.563 348.757 310.507 345.002 313.728 340.8C313.749 341.226 313.771 341.632 313.771 342.037C313.749 356.33 299.925 365.994 293.76 369.877ZM362.112 354.282C360.491 353.13 360.768 349.397 366.101 337.77C368.192 333.205 372.971 325.525 381.291 318.165C382.251 321.194 382.848 324.074 382.827 326.784C382.72 344.789 369.877 351.509 362.112 354.282Z" fill="#F9F3D7"/>
</g>
<defs>
<clipPath id="clip0_6_78">
<rect width="512" height="512" fill="white"/>
</clipPath>
</defs>
</svg>
