<svg width="512" height="512" viewBox="0 0 512 512" fill="none" xmlns="http://www.w3.org/2000/svg">
<path d="M345.899 144L344.299 152.341C341.824 168.149 342.72 172.672 349.504 178.539L356.053 183.957L349.269 214.208C345.216 232.256 340.245 247.381 337.088 252.352C334.379 256.64 331.221 262.955 330.539 266.347C329.408 270.4 325.568 274.475 319.701 278.08C314.517 281.024 304.341 288.917 297.131 295.253C291.371 300.437 287.403 303.616 285.248 304.981L278.208 310.549C275.947 314.176 274.667 317.099 274.176 319.317C273.685 321.6 273.963 323.115 274.688 324.224C275.392 325.291 276.608 326.037 278.272 326.507C280.242 326.968 282.269 327.134 284.288 326.997C288.855 326.685 293.375 325.884 297.771 324.608C299.264 324.203 300.437 323.819 301.461 323.477C303.04 321.536 306.688 317.867 313.152 311.488C330.304 294.571 336.853 285.312 330.091 287.808C327.595 288.704 328.725 286.443 333.013 281.92C342.059 273.109 347.243 259.797 358.08 218.048C366.656 185.088 366.656 184.619 372.971 184.619C375.936 184.619 384.32 185.131 384.32 185.131V144H365.077H345.899ZM427.797 211.52C426.432 211.52 424.171 213.568 422.827 215.829C420.352 219.883 423.275 222.357 460.523 245.611C482.645 259.627 500.48 271.573 500.032 272.491C499.584 273.152 481.515 284.907 459.861 298.453C420.565 322.816 420.352 323.051 423.957 328.021C428.48 333.888 423.957 335.915 474.965 304.085L512 280.384V262.549L470.677 237.035C448.341 223.04 428.928 211.755 427.797 211.52ZM84.6507 214.016C83.52 214.016 64.1067 225.536 41.7707 239.296L0 264.811V282.645L41.536 308.608C64.576 322.816 83.9893 334.571 84.8853 334.571C85.7813 334.571 87.5947 332.523 89.408 330.048C92.1173 325.76 89.8347 323.947 51.6907 299.797C15.36 276.992 11.52 273.835 15.1467 271.36C17.408 269.781 34.56 259.157 53.0773 247.659C95.296 221.696 93.0347 223.488 89.6427 218.069C88.2987 215.829 86.016 213.803 84.672 214.016H84.6507ZM269.909 214.507C263.68 214.464 250.283 223.957 210.176 256.704C208.448 260.821 208.299 263.659 209.088 265.493C209.6 266.752 210.539 267.627 211.84 268.267C213.12 268.907 214.784 269.291 216.619 269.44C220.267 269.76 224.576 269.184 228.053 268.501L230.4 267.968C231.203 266.891 232.258 266.027 233.472 265.451C235.947 264.085 246.336 254.613 256.725 244.459C275.008 225.941 279.296 217.579 271.851 214.869C271.24 214.626 270.588 214.503 269.931 214.507H269.909ZM316.757 227.371C311.275 227.52 301.397 233.877 284.48 247.381C275.989 254.272 270.613 257.984 267.733 258.752L256.555 267.584C252.352 275.264 251.733 280.021 252.843 282.645C253.12 283.293 253.523 283.878 254.029 284.369C254.534 284.86 255.132 285.246 255.787 285.504C257.416 286.148 259.154 286.473 260.907 286.464C265.094 286.419 269.256 285.809 273.28 284.651C275.377 284.088 277.448 283.433 279.488 282.688L280.107 282.432L281.237 281.835C283.371 279.083 288.277 273.899 294.421 267.925C313.835 249.195 323.755 235.883 321.728 230.912C320.811 228.501 319.232 227.285 316.757 227.371V227.371ZM265.045 250.411C263.467 250.581 259.925 253.312 253.547 258.901C244.331 267.051 234.283 271.744 230.805 269.653C229.997 269.836 229.186 270.007 228.373 270.165C224.832 270.869 220.416 271.445 216.469 271.125C214.61 271.013 212.787 270.557 211.093 269.781C209.496 269.051 208.221 267.761 207.509 266.155C206.72 264.235 206.72 261.845 207.616 258.795L193.749 270.187L162.368 296.149V338.24L265.195 257.237C265.175 256.35 265.29 255.466 265.536 254.613C266.325 251.755 266.283 250.304 265.045 250.432V250.411ZM309.291 264.043C307.733 264.043 305.131 266.24 300.971 270.656C295.317 276.693 286.421 282.539 281.707 283.733L280.981 284.117C280.207 284.437 279.425 284.736 278.635 285.013C277.355 285.44 275.691 285.952 273.771 286.464C269.931 287.509 265.152 288.469 260.885 288.363C258.874 288.36 256.882 287.969 255.019 287.211C253.263 286.487 251.856 285.11 251.093 283.371C249.856 280.405 250.347 276.245 253.056 270.336L162.347 341.781V367.488H202.197L286.72 301.099C288.917 298.667 292.224 295.339 296.683 291.179C308.629 280.107 311.339 276.288 311.339 270.635C311.339 266.24 310.848 264.021 309.291 264.021V264.043ZM329.408 305.643L322.176 312.853C318.123 316.693 310.891 321.429 305.941 323.456L304.96 323.883L304.896 323.989L304.683 324.203C304.491 324.352 304.405 324.373 304.256 324.437C302.28 325.185 300.273 325.847 298.24 326.421C293.72 327.737 289.071 328.56 284.373 328.875C282.152 329.017 279.923 328.823 277.76 328.299C275.883 327.885 274.226 326.791 273.109 325.227C272.085 323.648 271.787 321.536 272.363 318.933C272.821 317.08 273.501 315.29 274.389 313.6L206.187 367.488H296.896L307.733 355.072C322.624 337.707 329.408 325.291 329.408 314.667V305.643Z" fill="#F9F3D7"/>
</svg>
