<svg width="512" height="512" viewBox="0 0 512 512" fill="none" xmlns="http://www.w3.org/2000/svg">
<g clip-path="url(#clip0_6_82)">
<path d="M474.688 252.16C474.662 237.475 469.776 223.212 460.792 211.595C451.808 199.979 439.231 191.664 425.024 187.947L488.768 0H172.885L236.8 188.544C223.002 192.566 210.879 200.951 202.249 212.444C193.618 223.936 188.944 237.916 188.928 252.288C188.953 262.884 191.508 273.322 196.38 282.732C201.252 292.141 208.3 300.252 216.939 306.389C210.133 315.984 202.386 324.874 193.813 332.928C178.044 347.947 159.589 359.867 139.413 368.064C121.621 356.053 113.92 334.869 120.875 315.883C136.01 311.181 148.962 301.218 157.388 287.794C165.814 274.371 169.156 258.375 166.81 242.701C164.464 227.027 156.585 212.711 144.598 202.343C132.612 191.975 117.31 186.24 101.461 186.176C83.8551 186.199 66.9764 193.203 54.5269 205.652C42.0774 218.102 35.0733 234.98 35.0507 252.587C35.0507 270.677 42.4534 287.275 54.3147 299.136C53.2907 301.205 52.2454 303.296 51.2 305.515C41.28 325.973 30.016 349.099 25.7067 375.04C17.1094 426.923 31.1894 468.565 65.152 492.139C83.5335 505.103 105.485 512.042 127.979 512C166.955 512 206.528 492.437 244.779 473.451C272.064 459.968 300.224 445.888 327.936 439.061C338.176 436.544 348.843 435.072 360.107 433.429C382.933 430.165 406.507 426.773 427.691 414.443C439.788 407.51 450.224 398.016 458.265 386.625C466.306 375.234 471.758 362.222 474.24 348.501C477.952 327.296 474.24 305.963 464.768 287.275C471.125 277.035 474.688 265.045 474.688 252.139V252.16ZM445.781 252.16C445.781 272.747 429.035 289.493 408.448 289.493C400.696 289.472 393.141 287.041 386.831 282.538C380.52 278.035 375.765 271.683 373.223 264.359C370.681 257.035 370.478 249.102 372.641 241.658C374.805 234.213 379.229 227.625 385.301 222.805L385.451 222.656C386.645 221.76 387.968 220.864 389.291 219.989C389.291 219.989 389.461 219.989 389.461 219.84C390.059 219.541 390.635 219.093 391.232 218.773C391.381 218.773 391.531 218.645 391.68 218.645C392.277 218.347 393.024 218.048 393.749 217.749C394.496 217.451 395.243 217.173 395.84 216.875C395.989 216.875 396.117 216.725 396.267 216.725C396.864 216.576 397.461 216.277 398.059 216.128C398.208 216.128 398.485 215.979 398.656 215.979C399.381 215.829 399.979 215.68 400.725 215.552H400.875L403.093 215.083C403.243 215.083 403.52 215.083 403.691 214.933C404.288 214.933 404.864 214.784 405.461 214.784H406.208C406.955 214.784 407.701 214.635 408.576 214.635H410.496C411.093 214.635 411.563 214.635 412.139 214.784H412.437C413.611 214.933 414.805 215.083 416 215.381C424.416 217.185 431.961 221.815 437.379 228.503C442.798 235.19 445.763 243.532 445.781 252.139V252.16ZM214.251 29.6533H447.424L393.899 187.52C391.68 187.947 389.461 188.693 387.243 189.44L330.923 74.56L274.432 188.693C272.213 187.968 269.824 187.52 267.456 187.072L214.251 29.632V29.6533ZM320.235 239.253C317.508 225.57 310.5 213.108 300.224 203.669L330.901 141.717L361.877 205.013C352.704 214.187 346.027 225.92 343.36 239.253H320.213H320.235ZM245.973 215.829C246.699 215.68 247.296 215.531 248.043 215.403H248.469C249.088 215.232 249.664 215.232 250.261 215.083H250.859C251.456 215.083 251.904 214.933 252.48 214.933H258.261C258.859 214.933 259.307 215.083 259.755 215.083C260.053 215.083 260.181 215.083 260.501 215.232C261.077 215.381 261.525 215.381 262.123 215.531C262.272 215.531 262.421 215.531 262.72 215.68L264.789 216.107H264.939C265.536 216.277 266.133 216.427 266.709 216.725C266.859 216.725 267.008 216.875 267.307 216.875C267.755 217.024 268.352 217.173 268.8 217.451C268.949 217.451 269.099 217.6 269.227 217.6C269.824 217.899 270.421 218.048 271.019 218.347H271.168C271.853 218.605 272.499 218.957 273.088 219.392H273.237C273.835 219.691 274.432 220.117 275.029 220.416C275.179 220.416 275.179 220.565 275.307 220.565C275.904 220.864 276.373 221.312 276.949 221.611L277.099 221.76C278.869 223.083 280.512 224.576 282.133 226.048L282.283 226.197C288.889 233.156 292.557 242.394 292.523 251.989C292.195 261.678 288.116 270.86 281.147 277.598C274.177 284.336 264.862 288.103 255.168 288.103C245.474 288.103 236.159 284.336 229.189 277.598C222.22 270.86 218.141 261.678 217.813 251.989C217.79 243.682 220.551 235.606 225.655 229.051C230.76 222.497 237.913 217.842 245.973 215.829V215.829ZM100.096 214.784C120.704 214.784 137.451 231.552 137.451 252.139C137.451 272.725 120.704 289.493 100.117 289.493C79.5307 289.493 62.7414 272.747 62.7414 252.16C62.7414 231.573 79.5094 214.784 100.096 214.784V214.784ZM444.907 343.317C443.221 352.801 439.463 361.796 433.903 369.662C428.342 377.527 421.115 384.069 412.736 388.821C396.565 398.165 376.704 401.131 355.797 404.096C344.042 405.602 332.366 407.674 320.811 410.304C289.984 417.877 260.352 432.704 231.595 446.933C194.816 465.152 160.128 482.347 127.979 482.347C111.493 482.449 95.4009 477.309 82.0267 467.669C49.408 445.141 51.0294 402.901 54.8907 379.776C58.4534 358.123 68.3734 337.835 77.8667 318.4C78.464 317.227 78.912 316.181 79.5094 314.987C82.752 316.181 86.1654 317.077 89.728 317.675C84.096 349.099 100.096 381.547 131.243 397.568L136.875 400.533L142.933 398.315C168.875 389.12 192.896 374.144 214.101 354.133C225.811 343.214 236.162 330.923 244.928 317.525C248.341 318.101 251.755 318.251 255.168 318.251C269.843 318.217 284.094 313.329 295.702 304.35C307.309 295.37 315.619 282.804 319.339 268.608H344.235C347.93 282.825 356.24 295.414 367.861 304.398C379.483 313.383 393.758 318.255 408.448 318.251C420.736 318.251 432.128 314.837 441.941 309.077C445.781 320.171 446.976 331.755 444.907 343.317Z" fill="#F9F3D7"/>
</g>
<defs>
<clipPath id="clip0_6_82">
<rect width="512" height="512" fill="white"/>
</clipPath>
</defs>
</svg>
