<svg width="512" height="512" viewBox="0 0 512 512" fill="none" xmlns="http://www.w3.org/2000/svg">
<g clip-path="url(#clip0_6_115)">
<path d="M31 -2L72.0464 460.462L256.226 512L440.921 460.273L482 -2H31ZM396.727 103.952L383.064 258.013L383.105 258.845L383.048 260.758V260.742L373.34 368.464L372.271 378.034L256.5 410.169V410.173L256.41 410.251L140.839 377.935L133.014 288.875H189.687L193.708 334.161L256.516 351.245L256.5 351.277V351.269L319.541 333.944L326.203 260.197H194.418L193.287 247.73L190.711 218.524L189.36 202.841H331.212L336.372 145.486H120.318L119.187 133.027L116.616 103.813L115.26 88.1302H398.078L396.727 103.952Z" fill="#F9F3D7"/>
</g>
<defs>
<clipPath id="clip0_6_115">
<rect width="512" height="512" fill="white"/>
</clipPath>
</defs>
</svg>
