<svg width="512" height="512" viewBox="0 0 512 512" fill="none" xmlns="http://www.w3.org/2000/svg">
<g clip-path="url(#clip0_6_61)">
<path d="M498.577 223.588L288.412 13.4233C279.463 4.47444 267.731 0 256 0C244.269 0 232.537 4.47444 223.588 13.4233L182.027 54.9843L233.494 106.451C250.557 96.4118 272.818 98.56 287.477 113.208C302.125 127.855 304.273 150.116 294.233 167.19L344.799 217.756C361.862 207.716 384.122 209.864 398.781 224.512C416.167 241.898 416.167 270.091 398.781 287.477C381.395 304.863 353.202 304.863 335.816 287.477C321.169 272.829 319.021 250.568 329.06 233.494L278.495 182.929C274.888 185.043 271.082 186.602 267.13 187.615V324.352C286.297 329.316 300.522 346.579 300.522 367.304C300.522 391.891 280.587 411.826 256 411.826C231.413 411.826 211.478 391.891 211.478 367.304C211.478 346.579 225.703 329.316 244.87 324.352V187.626C237.423 185.7 230.344 182.005 224.523 176.184C209.875 161.536 207.727 139.275 217.767 122.201L166.289 70.7228L13.4233 223.588C-4.47443 241.486 -4.47443 270.503 13.4233 288.401L223.588 498.566C232.537 507.526 244.269 512 256 512C267.731 512 279.463 507.526 288.412 498.577L498.577 288.412C516.474 270.514 516.474 241.486 498.577 223.588Z" fill="#F9F3D7"/>
</g>
<defs>
<clipPath id="clip0_6_61">
<rect width="512" height="512" fill="white"/>
</clipPath>
</defs>
</svg>
