<svg width="512" height="512" viewBox="0 0 512 512" fill="none" xmlns="http://www.w3.org/2000/svg">
<path d="M366.496 203.088C339.584 84.4161 276 45.5041 269.168 30.5921C261.664 20.0161 253.584 0.0161133 253.584 0.0161133C253.504 0.432113 253.504 0.688113 253.424 1.10411V1.36011C253.424 1.69611 253.344 1.85611 253.344 2.19211V2.52811H253.264C253.264 2.68811 253.264 2.86411 253.264 3.02411V3.60011H253.184C253.184 3.76011 253.184 4.01611 253.104 4.09611V4.59211C253.104 4.75211 253.104 4.92811 253.024 5.00811V5.42411C253.024 5.68011 253.024 5.92011 252.944 6.09611V6.17611C252.944 6.51211 252.864 6.92811 252.784 7.26411V7.42411C252.704 7.50411 252.704 7.58411 252.704 7.68011V8.01611H252.624V8.51211H252.544V8.84811H252.384V9.34411H252.304V9.76011H252.224V10.0961H252.144V10.4321H252.064V10.7681H251.984V11.1041H251.904V11.3601H251.824V11.6961H251.744V11.7761V12.0321H251.664C251.584 12.0321 251.584 12.1121 251.584 12.1121V12.2721L251.504 12.4321C251.504 12.5921 251.424 12.7681 251.344 12.9281C251.264 13.0081 251.264 13.0081 251.264 13.0881V13.2481H251.184V13.4081H251.024V13.8241H250.864V14.0801H250.784V14.1601H250.704V14.3201H250.624V14.5761H250.544V14.7361H250.384V14.9921H250.304V15.1521H250.224V15.3121H250.144V15.5681H250.064V15.7281H249.984V15.8081H249.904V15.9681H249.744V16.2241H249.664V16.3041H249.584V16.4641H249.504V16.7201H249.424V16.8001H249.344V16.9601H249.264V17.0401H249.184V17.2961H249.024V17.3761H248.944V17.5361H248.864V17.6161H248.784V17.7761H248.704C248.704 17.8561 248.704 17.8561 248.704 17.8561V17.9361C248.624 17.9361 248.624 18.0161 248.624 18.0161V18.0961H248.544C248.464 18.2561 248.384 18.3521 248.288 18.5121C248.288 18.5121 248.128 18.6721 248.128 18.7681C248.048 18.7681 248.048 18.8481 248.048 18.8481V18.9281H247.968V19.0081H247.888C247.888 19.0081 247.888 19.0081 247.888 19.0881V19.1681H247.728V19.2481H247.648V19.3281H247.568V19.4081V19.5681H247.488V19.6481H247.408V19.7281H247.328V19.8881H247.248V19.7281H247.088V19.8081H247.008V19.9681H246.928V20.1281H246.848V20.2081H246.768V20.2881H246.688V20.3681H246.608V20.5281H246.448V20.6081H246.368V20.7681H246.288V20.8481H246.208V20.9281H246.128V21.1841H246.048V21.2641H245.968V21.3441H245.888V21.4241H245.808V21.5041H245.648V21.6641H245.568V21.7441H245.488V21.8241H245.408V21.9841H245.328V22.0641H245.168V22.1441H245.088V22.2241H245.008V22.3841H244.928V22.5441H244.848V22.6241H244.768V22.7041H244.608V22.7841H244.528V22.8641H244.448V23.0241H244.368V23.1041H244.288V23.2641H244.208V23.3441H244.128V23.4241H244.048V23.5041H243.968V23.5841H243.808V23.6641C243.728 23.6641 243.728 23.7441 243.728 23.7441L243.648 23.8241L243.568 23.9041V24.0641H243.488V24.1441H243.408V24.2241H243.328V24.3041H243.248L243.088 24.4641V24.5441C242.928 24.6241 242.928 24.7041 242.752 24.8801C242.752 24.8801 242.592 25.0401 242.496 25.0401C242.24 25.2001 241.92 25.5361 241.664 25.7921C241.504 25.8721 241.328 26.0481 241.168 26.1281C240.832 26.4641 240.496 26.7041 240.16 26.9601C239.664 27.4561 239.152 27.7921 238.576 28.2881H238.496C237.328 29.2961 236 30.4481 234.576 31.7121H234.496C230.912 34.8801 226.656 38.9601 221.824 43.7921L221.408 44.2081C192.4 74.2081 146.656 136.784 141.904 237.872C141.408 246.208 141.488 254.368 141.984 262.288V262.448C144.32 302.288 156.816 336.288 172.48 363.952C178.64 374.96 185.392 384.96 192.224 393.952C215.728 424.96 239.728 443.376 245.808 447.872C255.232 469.616 254.384 507.12 254.384 507.12L268.128 511.696C268.128 511.696 265.296 475.44 269.216 457.856C270.464 452.432 273.296 447.776 276.64 443.776C278.976 442.192 285.648 437.36 293.648 430.032C294.064 429.616 294.32 429.28 294.656 428.864C327.072 398.608 387.664 324.112 366.912 202.784L366.496 203.088Z" fill="#F9F3D7"/>
</svg>
